Coordinates
version=1
nRows=30
nColumns=33
inDegrees=yes

Units are S.I. units (second, meters, Newtons, ...)
Angles are in degrees.

endheader
time	ground_thorax_rot_x	ground_thorax_rot_y	ground_thorax_rot_z	ground_thorax_tx	ground_thorax_ty	ground_thorax_tz	clav_prot_r	clav_elev_r	scapula_abduction_r	scapula_elevation_r	scapula_upward_rot_r	scapula_winging_r	shoulder_elv_r	plane_of_elev_r	axial_rot_r	elbow_flexion_r	pro_sup_r	wrist_flex_r	wrist_dev_r	clav_prot_l	clav_elev_l	scapula_abduction_l	scapula_elevation_l	scapula_upward_rot_l	scapula_winging_l	shoulder_elv_l	plane_of_elev_l	axial_rot_l	elbow_flexion_l	pro_sup_l	wrist_flex_l	wrist_dev_l	
9.1000	-7.881681	-42.244791	76.598978	56.404394	760.742244	-29.628040	45.000000	-45.000000	39.535520	-45.000000	-45.000000	-1088.871379	-2264.234341	-90.000000	33.116512	1064.246807	125.099150	11.914725	8.368766	-4.729069	35.269853	-27.589164	-45.000000	-38.382975	-3502.569459	-2264.017072	140.884693	180.000000	1436.107875	-321.901908	15.137960	-17.764467	
9.1100	-8.112919	-42.230295	76.335583	56.243433	760.391471	-29.558634	45.000000	-45.000000	39.522559	-45.000000	-45.000000	-1088.877711	-2264.291089	-90.000000	33.187757	1064.268561	125.226334	11.927627	8.369902	-4.688513	35.314253	-27.604510	-45.000000	-38.449956	-3502.596603	-2264.027839	140.889717	180.000000	1436.078108	-322.244969	15.145485	-17.765348	
9.1200	-8.355074	-42.209159	76.060368	56.042923	760.054837	-29.495245	45.000000	-45.000000	39.505259	-45.000000	-45.000000	-1088.888947	-2264.344016	-90.000000	33.255214	1064.291836	125.368748	11.951047	8.359388	-4.645757	35.451466	-27.637524	-45.000000	-38.548860	-3502.641926	-2264.037290	140.907922	180.000000	1436.058182	-322.582704	15.155965	-17.798425	
9.1300	-8.602912	-42.190499	75.768731	55.758232	759.750202	-29.442406	45.000000	-45.000000	39.495724	-45.000000	-45.000000	-1088.894354	-2264.394691	-90.000000	33.320413	1064.318283	125.546531	11.969329	8.354893	-4.611204	35.506617	-27.657631	-45.000000	-38.606792	-3502.679601	-2264.038340	140.916430	180.000000	1436.024861	-322.891158	15.161495	-17.810548	
9.1400	-8.859108	-42.170492	75.461350	55.382606	759.477849	-29.403843	45.000000	-45.000000	39.490234	-45.000000	-45.000000	-1088.899618	-2264.441174	-90.000000	33.381458	1064.349623	125.759251	11.985832	8.353631	-4.573373	35.506070	-27.679381	-45.000000	-38.639493	-3502.707966	-2264.037108	140.918620	180.000000	1435.984509	-323.168886	15.160544	-17.809744	
9.1500	-9.126752	-42.149965	75.135844	54.903413	759.240022	-29.384075	45.000000	-45.000000	39.485054	-45.000000	-45.000000	-1088.907227	-2264.483380	-90.000000	33.438353	1064.381377	126.010165	12.005433	8.351648	-4.537565	35.503854	-27.704515	-45.000000	-38.662569	-3502.739771	-2264.024438	140.922539	180.000000	1435.944895	-323.414855	15.155022	-17.816027	
9.1600	-9.407661	-42.128641	74.787161	54.318330	759.033882	-29.387283	45.000000	-45.000000	39.479973	-45.000000	-45.000000	-1088.915406	-2264.519301	-90.000000	33.489078	1064.412357	126.294359	12.030565	8.351179	-4.500528	35.465796	-27.732318	-45.000000	-38.665652	-3502.763723	-2264.007842	140.919244	180.000000	1435.904059	-323.623530	15.138600	-17.818649	
9.1700	-9.703572	-42.107104	74.414034	53.629366	758.854218	-29.417124	45.000000	-45.000000	39.472890	-45.000000	-45.000000	-1088.923992	-2264.551103	-90.000000	33.535738	1064.435596	126.605240	12.062867	8.349400	-4.464289	35.472820	-27.768591	-45.000000	-38.669436	-3502.795793	-2263.979821	140.924821	180.000000	1435.873405	-323.797297	15.116223	-17.844796	
9.1800	-10.013555	-42.085827	74.012193	52.838215	758.695809	-29.476395	45.000000	-45.000000	39.466135	-45.000000	-45.000000	-1088.928235	-2264.576493	-90.000000	33.575901	1064.454991	126.934679	12.106139	8.347351	-4.431344	35.456236	-27.802448	-45.000000	-38.649164	-3502.818619	-2263.948940	140.921599	180.000000	1435.844083	-323.928618	15.077321	-17.870326	
9.1900	-10.331102	-42.063543	73.595726	51.945716	758.553592	-29.566813	45.000000	-45.000000	39.457892	-45.000000	-45.000000	-1088.933679	-2264.595843	-90.000000	33.609957	1064.476297	127.278890	12.147067	8.346818	-4.394122	35.475830	-27.847701	-45.000000	-38.625777	-3502.844790	-2263.911063	140.932011	180.000000	1435.825526	-324.019098	15.032003	-17.913476	
9.2000	-10.660993	-42.038894	73.149324	50.952219	758.422985	-29.688772	45.000000	-45.000000	39.451851	-45.000000	-45.000000	-1088.933348	-2264.609097	-90.000000	33.637803	1064.499555	127.633188	12.199851	8.341999	-4.365994	35.481246	-27.887561	-45.000000	-38.579238	-3502.863037	-2263.874737	140.932595	180.000000	1435.808176	-324.064846	14.967807	-17.958368	
9.2100	-10.991885	-42.011296	72.698242	49.857557	758.300159	-29.841312	45.000000	-45.000000	39.445071	-45.000000	-45.000000	-1088.936161	-2264.617179	-90.000000	33.660475	1064.534844	127.996686	12.233806	8.343739	-4.324397	35.507691	-27.945294	-45.000000	-38.524949	-3502.878684	-2263.838050	140.952234	180.000000	1435.801085	-324.066623	14.899431	-18.011612	
9.2200	-11.329974	-41.981243	72.231237	48.661650	758.182282	-30.022237	45.000000	-45.000000	39.433234	-45.000000	-45.000000	-1088.939707	-2264.620195	-90.000000	33.678237	1064.581706	128.368600	12.269284	8.341420	-4.291786	35.517126	-28.002076	-45.000000	-38.444826	-3502.883939	-2263.801130	140.968435	180.000000	1435.796613	-324.024255	14.812834	-18.062635	
9.2300	-11.672045	-41.948213	71.760866	47.364281	758.067628	-30.228435	45.000000	-45.000000	39.413012	-45.000000	-45.000000	-1088.950871	-2264.617331	-90.000000	33.690473	1064.641864	128.748380	12.280588	8.345871	-4.245852	35.535793	-28.076569	-45.000000	-38.343500	-3502.881010	-2263.762513	141.002052	180.000000	1435.800500	-323.940469	14.722401	-18.115303	
9.2400	-12.031745	-41.913292	71.257608	45.965813	757.955687	-30.456183	45.000000	-45.000000	39.387238	-45.000000	-45.000000	-1088.959504	-2264.613039	-90.000000	33.701654	1064.698888	129.131852	12.299410	8.344140	-4.216975	35.555049	-28.142520	-45.000000	-38.210299	-3502.871528	-2263.719356	141.027371	180.000000	1435.807358	-323.819511	14.614525	-18.171317	
9.2500	-12.404333	-41.876520	70.732402	44.466825	757.847134	-30.701521	45.000000	-45.000000	39.357312	-45.000000	-45.000000	-1088.968082	-2264.606376	-90.000000	33.710777	1064.754990	129.512691	12.297583	8.349896	-4.177755	35.585158	-28.218224	-45.000000	-38.042510	-3502.852643	-2263.676059	141.064757	180.000000	1435.817805	-323.663936	14.504665	-18.225777	
9.2600	-12.793055	-41.837229	70.176621	42.868598	757.743709	-30.960422	45.000000	-45.000000	39.326804	-45.000000	-45.000000	-1088.975962	-2264.602367	-90.000000	33.722865	1064.805676	129.885665	12.300795	8.351231	-4.151272	35.615279	-28.286178	-45.000000	-37.856904	-3502.829634	-2263.629189	141.094786	180.000000	1435.832859	-323.481786	14.383039	-18.281397	
9.2700	-13.192368	-41.793961	69.600137	41.172914	757.648097	-31.228960	45.000000	-45.000000	39.301063	-45.000000	-45.000000	-1088.986173	-2264.600410	-90.000000	33.737299	1064.855425	130.244762	12.288996	8.357821	-4.116428	35.651858	-28.359777	-45.000000	-37.662492	-3502.801510	-2263.583996	141.129270	180.000000	1435.852918	-323.279997	14.263155	-18.334649	
9.2800	-13.596965	-41.745750	69.007988	39.382630	757.563640	-31.503291	45.000000	-45.000000	39.288579	-45.000000	-45.000000	-1089.001624	-2264.607609	-90.000000	33.761301	1064.902280	130.586550	12.277055	8.364574	-4.085076	35.685253	-28.432094	-45.000000	-37.489085	-3502.774632	-2263.537069	141.158100	180.000000	1435.882761	-323.069292	14.140450	-18.388037	
9.2900	-14.000408	-41.693429	68.411520	37.501575	757.494174	-31.779688	45.000000	-45.000000	39.287376	-45.000000	-45.000000	-1089.023169	-2264.618407	-90.000000	33.789416	1064.953491	130.906135	12.249882	8.377815	-4.045634	35.721969	-28.511063	-45.000000	-37.331897	-3502.746741	-2263.491852	141.191927	180.000000	1435.915802	-322.857439	14.026492	-18.436540	
9.3000	-14.375534	-41.637591	67.849678	35.534877	757.443646	-32.054524	45.000000	-45.000000	39.313872	-45.000000	-45.000000	-1089.066109	-2264.639322	-90.000000	33.828680	1065.018464	131.203700	12.213186	8.395003	-3.999325	35.749234	-28.598962	-45.000000	-37.270282	-3502.729563	-2263.441526	141.223058	180.000000	1435.963219	-322.654091	13.919219	-18.484583	
9.3100	-14.735651	-41.578920	67.303995	33.488634	757.416036	-32.324340	45.000000	-45.000000	39.360775	-45.000000	-45.000000	-1089.120175	-2264.663937	-90.000000	33.872897	1065.094302	131.474971	12.166637	8.417203	-3.946318	35.777126	-28.692604	-45.000000	-37.265589	-3502.718931	-2263.388369	141.254259	180.000000	1436.014482	-322.466472	13.820972	-18.527476	
9.3200	-15.083564	-41.515091	66.771436	31.369916	757.415073	-32.585884	45.000000	-45.000000	39.424539	-45.000000	-45.000000	-1089.182895	-2264.690915	-90.000000	33.920851	1065.181243	131.716266	12.113202	8.443076	-3.888755	35.803650	-28.793494	-45.000000	-37.310908	-3502.716020	-2263.332636	141.287440	180.000000	1436.070373	-322.300096	13.732006	-18.565601	
9.3300	-15.448305	-41.445719	66.212739	29.186166	757.444366	-32.836188	45.000000	-45.000000	39.482669	-45.000000	-45.000000	-1089.237253	-2264.710531	-90.000000	33.962472	1065.269218	131.920899	12.058327	8.469991	-3.836808	35.838573	-28.894546	-45.000000	-37.317545	-3502.707403	-2263.280239	141.326313	180.000000	1436.115349	-322.155984	13.653919	-18.596042	
9.3400	-15.823129	-41.369238	65.638517	26.944821	757.507273	-33.072610	45.000000	-45.000000	39.538540	-45.000000	-45.000000	-1089.289497	-2264.724320	-90.000000	33.999088	1065.356352	132.087311	12.005769	8.495878	-3.789029	35.874254	-28.996811	-45.000000	-37.305181	-3502.693342	-2263.229895	141.365302	180.000000	1436.156763	-322.031915	13.587320	-18.623631	
9.3500	-16.228403	-41.285658	65.022723	24.652876	757.607131	-33.292839	45.000000	-45.000000	39.577352	-45.000000	-45.000000	-1089.330313	-2264.726715	-90.000000	34.024662	1065.432485	132.213561	11.960821	8.519099	-3.750704	35.916384	-29.095521	-45.000000	-37.216431	-3502.664576	-2263.184227	141.406029	180.000000	1436.188242	-321.922303	13.532059	-18.648735	
9.3600	-16.653889	-41.195064	64.378187	22.316481	757.747074	-33.494964	45.000000	-45.000000	39.605457	-45.000000	-45.000000	-1089.365421	-2264.719095	-90.000000	34.040303	1065.494817	132.301989	11.926823	8.538249	-3.720453	35.959154	-29.189776	-45.000000	-37.069340	-3502.621594	-2263.142082	141.443494	180.000000	1436.213711	-321.818916	13.488616	-18.675763	
9.3700	-17.093585	-41.099985	63.713547	19.940759	757.930109	-33.677511	45.000000	-45.000000	39.625840	-45.000000	-45.000000	-1089.397854	-2264.701083	-90.000000	34.045469	1065.541259	132.355863	11.903929	8.554295	-3.695803	36.002586	-29.279140	-45.000000	-36.875656	-3502.564721	-2263.103033	141.476352	180.000000	1436.234389	-321.712313	13.456284	-18.706988	
9.3800	-17.521310	-41.002894	63.064769	17.529743	758.158888	-33.839566	45.000000	-45.000000	39.655482	-45.000000	-45.000000	-1089.440205	-2264.677879	-90.000000	34.045576	1065.578386	132.381702	11.888684	8.568698	-3.669819	36.040642	-29.367226	-45.000000	-36.699810	-3502.502688	-2263.062528	141.501709	180.000000	1436.260092	-321.594045	13.433296	-18.746326	
9.3900	-17.943185	-40.904108	62.425540	15.086636	758.435757	-33.980839	45.000000	-45.000000	39.689933	-45.000000	-45.000000	-1089.488558	-2264.648201	-90.000000	34.039455	1065.607007	132.383033	11.879084	8.582533	-3.641233	36.078254	-29.455315	-45.000000	-36.531390	-3502.437086	-2263.021038	141.524773	180.000000	1436.291026	-321.458075	13.416686	-18.793363	
